<svg id="Capa_1" enable-background="new 0 0 512 512" height="512" viewBox="0 0 512 512" width="512" xmlns="http://www.w3.org/2000/svg"><g><path d="m326 452h-140c-5.532 0-10.615-3.045-13.225-7.922-2.61-4.878-2.324-10.796.744-15.398 24.521-36.781 37.481-79.587 37.481-123.791v-37.889c0-8.284 6.716-15 15-15h60c8.284 0 15 6.716 15 15v37.889c0 44.204 12.96 87.011 37.481 123.791 3.068 4.603 3.354 10.521.744 15.398s-7.693 7.922-13.225 7.922z" fill="#c36f50"/><g><path d="m338.481 428.68c-24.521-36.781-37.481-79.587-37.481-123.791v-37.889c0-8.284-6.716-15-15-15h-30v200h70c5.532 0 10.615-3.045 13.225-7.922 2.61-4.878 2.324-10.796-.744-15.398z" fill="#7d5343"/></g><path d="m326 422h-140c-35.841 0-65 29.159-65 65v10h270v-10c0-35.841-29.159-65-65-65z" fill="#e6a551"/><g><path d="m391 487c0-35.841-29.159-65-65-65h-70v75h135z" fill="#c36f50"/></g><path d="m386 252c-8.284 0-15 6.716-15 15v80h30v-80c0-8.284-6.716-15-15-15z" fill="#d2e6fb"/><path d="m406 362h-40c-8.284 0-15-6.716-15-15s6.716-15 15-15h40c8.284 0 15 6.716 15 15s-6.716 15-15 15z" fill="#ff931e"/><g><g><path d="m256 282h102.651v-260l-39.166-22h-63.485l-31.742 30-31.743-30h-36.515c-6.738 0-12.649 4.493-14.453 10.985l-70 252c-1.255 4.517-.326 9.359 2.511 13.092 2.837 3.732 7.254 5.923 11.942 5.923h67.349l51.326-20z" fill="#fff58c"/></g><g><path d="m319.485 0h-63.485v282h102.651v-260z" fill="#ff931e"/></g><path d="m192.515 0-39.166 282h102.651v-282z" fill="#ffc85a"/><path d="m440.453 262.985-70-252c-1.804-6.492-7.715-10.985-14.453-10.985h-36.515l39.167 282h67.348c4.688 0 9.105-2.191 11.942-5.923 2.836-3.732 3.766-8.575 2.511-13.092z" fill="#f06e26"/></g><path d="m426 512h-340c-8.284 0-15-6.716-15-15s6.716-15 15-15h340c8.284 0 15 6.716 15 15s-6.716 15-15 15z" fill="#c36f50"/><g><path d="m426 482h-170v30h170c8.284 0 15-6.716 15-15s-6.716-15-15-15z" fill="#7d5343"/></g></g></svg>